# AST/ASF file generated using VICON BodyLanguage
# -----------------------------------------------
:version 1.10
:name VICON
:units
  mass 1.0
  length 0.45
  angle deg
:documentation
   .ast/.asf automatically generated from VICON data using
   VICON BodyBuilder and BodyLanguage model FoxedUp or BRILLIANT.MOD
:root
   order TX TY TZ RX RY RZ
   axis XYZ
   position 0 0 0  
   orientation 0 0 0 
:bonedata
  begin
     id 1 
     name lhipjoint
     direction 0.588788 -0.725889 0.355548 
     length 2.37778 
     axis 0 0 0  XYZ
  end
  begin
     id 2 
     name lfemur
     direction 0.34202 -0.939693 0  
     length 6.86393  
     axis 0 0 20  XYZ
    dof rx ry rz
    limits (-160.0 20.0)
           (-70.0 70.0)
           (-60.0 70.0)
  end
  begin
     id 3 
     name ltibia
     direction 0.34202 -0.939693 0   
     length 7.32851   
     axis 0 0 20   XYZ
    dof rx
    limits (-10.0 170.0)
  end
  begin
     id 4 
     name lfoot
     direction 0.0626533 -0.172138 0.983078   
     length 1.98929   
     axis -90 7.62852e-016 20   XYZ
    dof rx rz
    limits (-45.0 90.0)
           (-70.0 20.0)
  end
  begin
     id 5 
     name ltoes
     direction 1.53647e-011 -4.21734e-011 1   
     length 1.00479   
     axis -90 7.62852e-016 20   XYZ
    dof rx
    limits (-90.0 20.0)
  end
  begin
     id 6 
     name rhipjoint
     direction -0.59141 -0.724168 0.354705   
     length 2.38343  
     axis 0 0 0  XYZ 
  end
  begin
     id 7 
     name rfemur
     direction -0.34202 -0.939693 0   
     length 6.95589   
     axis 0 0 -20   XYZ
    dof rx ry rz
    limits (-160.0 20.0)
           (-70.0 70.0)
           (-70.0 60.0)
  end
  begin
     id 8 
     name rtibia
     direction -0.34202 -0.939693 0   
     length 7.32327   
     axis 0 0 -20   XYZ
    dof rx
    limits (-10.0 170.0)
 end
 begin
     id 9 
     name rfoot
     direction -0.0660461 -0.18146 0.981178   
     length 1.85272  
     axis -90 -7.62852e-016 -20   XYZ
    dof rx rz
    limits (-45.0 90.0)
           (-20.0 70.0)
  end
  begin
     id 10 
     name rtoes
     direction -1.53586e-011 -4.21988e-011 1   
     length 0.93746   
     axis -90 -7.62852e-016 -20   XYZ
    dof rx
    limits (-90.0 20.0)
  end
  begin
     id 11 
     name lowerback
     direction -0.0107982 0.991059 0.13299   
     length 1.98691   
     axis 0 0 0   XYZ
    dof rx ry rz
    limits (-20.0 45.0)
           (-30.0 30.0)
           (-30.0 30.0)
  end
  begin
     id 12 
     name upperback
     direction 0.0076296 0.999916 0.0104576   
     length 1.99501   
     axis 0 0 0   XYZ
    dof rx ry rz
    limits (-20.0 45.0)
           (-30.0 30.0)
           (-30.0 30.0)
  end
  begin
     id 13 
     name thorax
     direction 0.01176 0.998615 -0.0512909   
     length 2.03144   
     axis 0 0 0   XYZ
    dof rx ry rz
    limits (-20.0 45.0)
           (-30.0 30.0)
           (-30.0 30.0)
  end
  begin
     id 14 
     name lowerneck
     direction -0.0171909 0.999644 0.0204011   
     length 1.71818   
     axis 0 0 0   XYZ
    dof rx ry rz
    limits (-20.0 45.0)
           (-30.0 30.0)
           (-30.0 30.0)
  end
  begin
     id 15 
     name upperneck
     direction 0.0250902 0.997482 -0.0663316   
     length 1.66199   
     axis 0 0 0   XYZ
    dof rx ry rz
    limits (-20.0 45.0)
           (-30.0 30.0)
           (-30.0 30.0)
  end
  begin
     id 16
     name head
     direction 0.00881535 0.99956 -0.0283365  
     length 1.81545  
     axis 0 0 0   XYZ
    dof rx ry rz
    limits (-20.0 45.0)
           (-30.0 30.0)
           (-30.0 30.0)
  end
  begin
     id 17 
     name lclavicle
     direction 0.840411 0.486876 -0.238035  
     length 3.30409  
     axis 0 0 0   XYZ
    dof ry rz
    limits (-20.0 10.0)
           (0.0 20.0)
  end
  begin
     id 18 
     name lhumerus
     direction 1 -4.48977e-011 -5.16239e-027   
     length 4.62672   
     axis 180 -30 -90   XYZ
    dof rx ry rz
    limits (-60.0 90.0)
           (-90.0 90.0)
           (-90.0 90.0)
  end
  begin
     id 19
     name lradius
     direction 1 -4.48977e-011 -8.71171e-027   
     length 3.11018   
     axis 180 -30 -90   XYZ
    dof rx
    limits (-10.0 170.0)
  end
  begin
     id 20
     name lwrist
     direction 1 -4.48912e-011 -1.03764e-026   
     length 1.55509   
     axis 9.09556e-015 90 90   XYZ
    dof ry
    limits (-180.0 0.0)
 end
  begin
     id 21 
     name lhand
     direction 1 -4.49072e-011 -2.07528e-026   
     length 0.743834   
     axis 1.3242e-014 90 90   XYZ
    dof rx rz
    limits (-90.0 90.0)
           (-45.0 45.0)
  end
  begin
     id 22 
     name lfingers
     direction 1 -4.48909e-011 -4.15056e-026   
     length 0.599698   
     axis 2.64841e-014 90 90   XYZ
    dof rx
    limits (0.0 90.0)
  end
  begin
     id 23
     name lthumb
     direction 0.707107 -6.35013e-011 0.707107   
     length 0.86105   
     axis -90 45 2.85299e-015   XYZ
    dof rx rz
    limits (-45.0 45.0)
           (-45.0 45.0)
  end
  begin
     id 24 
     name rclavicle
     direction -0.835208 0.500237 -0.228452   
     length 3.2716  
     axis 0 0 0   XYZ 
    dof ry rz
    limits (-10.0 20.0)
           (-20.0 0.0)
  end
  begin
     id 25 
     name rhumerus
     direction -1 -4.48978e-011 -5.1953e-028  
     length 4.55919   
     axis 180 30 90   XYZ
    dof rx ry rz
    limits (-90.0 60.0)
           (-90.0 90.0)
           (-90.0 90.0)
  end
  begin
     id 26 
     name rradius
     direction -1 -4.48961e-011 -5.99546e-027   
     length 3.22748   
     axis 180 30 90   XYZ
    dof rx
    limits (-10.0 170.0)
  end
  begin
     id 27 
     name rwrist
     direction -1 -4.48986e-011 -1.03764e-026   
     length 1.61374   
     axis 9.09556e-015 -90 -90   XYZ
    dof ry
    limits (-180.0 0.0)
  end
  begin
     id 28
     name rhand
     direction -1 -4.4899e-011 -2.07528e-026   
     length 0.700882   
     axis 1.3242e-014 -90 -90   XYZ
    dof rx rz
    limits (-90.0 90.0)
           (-45.0 45.0)
  end
  begin
     id 29
     name rfingers
     direction -1 -4.48991e-011 -4.15056e-026   
     length 0.565069   
     axis 2.64841e-014 -90 -90   XYZ
    dof rx
    limits (0.0 90.0)
  end
  begin
     id 30
     name rthumb
     direction -0.707107 -6.34804e-011 0.707107   
     length 0.811329   
     axis -90 -45 -2.85299e-015   XYZ
    dof rx rz
    limits (-45.0 45.0)
           (-45.0 45.0)
  end
:hierarchy
  begin
    root lhipjoint rhipjoint lowerback
    lhipjoint lfemur
    lfemur ltibia
    ltibia lfoot
    lfoot ltoes
    rhipjoint rfemur
    rfemur rtibia
    rtibia rfoot
    rfoot rtoes
    lowerback upperback
    upperback thorax
    thorax lowerneck lclavicle rclavicle
    lowerneck upperneck
    upperneck head
    lclavicle lhumerus
    lhumerus lradius
    lradius lwrist
    lwrist lhand lthumb
    lhand lfingers
    rclavicle rhumerus
    rhumerus rradius
    rradius rwrist
    rwrist rhand rthumb
    rhand rfingers
  end

#!OML:ASF F:\VICON\USERDATA\INSTALL\SteveWalk\SteveWalk.ASF
:FULLY-SPECIFIED
:DEGREES
360
root 0.32632 15.7176 37.908 17.9599 -4.56413 3.41881
lowerback -17.2697 1.22212 -6.13625
upperback -6.10925 2.67262 -1.44546
thorax 2.90615 1.36315 2.45256
lowerneck -6.05556 -1.38239 -1.33451
upperneck 8.32446 -1.83455 1.17518
head 3.81164 -0.898402 0.529486
rclavicle -1.04113e-014 6.55989e-015
rhumerus -24.7546 5.33839 -84.4151
rradius 64.9147
rwrist -21.0941
rhand -22.0225 -39.7992
rfingers 7.12502
rthumb 4.38703 -69.7338
lclavicle -1.04113e-014 6.55989e-015
lhumerus -73.8806 28.0219 34.5871
lradius 7.55086
lwrist -42.7622
lhand -16.0112 -10.3732
lfingers 7.12502
lthumb 10.1893 19.36
rfemur -6.15954 -2.56627 13.8338
rtibia 44.6369
rfoot 13.4054 20.7917
rtoes -10.2762
lfemur -49.7368 1.21974 -27.6328
ltibia 34.4757
lfoot -0.884367 -3.1222
ltoes -3.24906
361
root 0.322073 15.7183 38.1507 17.8932 -4.25882 3.2663
lowerback -17.4586 1.07367 -6.15833
upperback -5.94374 2.50189 -1.39026
thorax 3.19285 1.26689 2.50217
lowerneck -5.79757 -1.36449 -1.56657
upperneck 7.74615 -1.81366 1.4828
head 3.56512 -0.883268 0.674401
rclavicle -4.8578e-015 1.39149e-015
rhumerus -25.6769 5.14072 -84.7322
rradius 64.6422
rwrist -20.4058
rhand -21.5818 -42.3257
rfingers 7.12502
rthumb 4.8126 -72.2511
lclavicle -4.8578e-015 1.39149e-015
lhumerus -73.5917 28.6314 34.4528
lradius 7.31543
lwrist -43.1784
lhand -16.8858 -11.4121
lfingers 7.12502
lthumb 9.34553 18.3607
rfemur -7.54567 -2.4034 13.9935
rtibia 47.7591
rfoot 16.1457 20.9872
rtoes -10.8177
lfemur -49.2858 0.761209 -27.3034
ltibia 35.5662
lfoot -2.17502 -2.91324
ltoes -6.62372
362
root 0.342648 15.7333 38.3738 17.5535 -3.86322 3.66023
lowerback -16.8839 0.843459 -6.36231
upperback -5.96842 2.19515 -1.55595
thorax 2.88697 1.12557 2.36535
lowerneck -5.63475 -1.32355 -1.47267
upperneck 7.58084 -1.76715 1.47608
head 3.47349 -0.858518 0.658428
rclavicle -3.70858e-015 -2.00773e-014
rhumerus -26.7311 4.07307 -84.7798
rradius 62.8384
rwrist -17.3366
rhand -16.2145 -32.5233
rfingers 7.12502
rthumb 9.99319 -62.2661
lclavicle -3.70858e-015 -2.00773e-014
lhumerus -73.5871 29.0379 34.0578
lradius 7.36159
lwrist -43.2048
lhand -17.2559 -11.9772
lfingers 7.12502
lthumb 8.98842 17.8113
rfemur -8.82652 -2.68573 13.464
rtibia 50.9719
rfoot 19.0038 20.597
rtoes -10.4013
lfemur -48.4244 0.0850566 -27.6481
ltibia 36.3536
lfoot -3.49114 -2.82659
ltoes -8.11113
363
root 0.335034 15.7444 38.5697 16.9967 -4.32068 4.48519
lowerback -15.8119 0.763668 -7.50002
upperback -6.0323 2.17678 -1.77932
thorax 2.20769 1.14937 2.72967
lowerneck -5.75617 -1.25809 -1.25169
upperneck 7.74242 -1.68139 1.26193
head 3.54619 -0.817754 0.552778
rclavicle -4.44781e-015 2.98177e-015
rhumerus -28.0282 4.73209 -85.6435
rradius 62.8628
rwrist -20.3697
rhand -19.8211 -33.1253
rfingers 7.12502
rthumb 6.51252 -63.0052
lclavicle -4.44781e-015 2.98177e-015
lhumerus -73.4655 29.4998 33.7431
lradius 7.66669
lwrist -42.5107
lhand -16.0622 -11.2298
lfingers 7.12502
lthumb 10.1402 18.5058
rfemur -10.3414 -2.05807 12.4912
rtibia 54.1019
rfoot 21.6755 19.4787
rtoes -10.5593
lfemur -47.2985 0.0795767 -28.5727
ltibia 37.0122
lfoot -5.0408 -2.36209
ltoes -13.5778
364
root 0.315786 15.7546 38.7652 16.6267 -5.05678 4.57689
lowerback -15.2382 0.889851 -8.05035
upperback -5.92596 2.3717 -1.78609
thorax 1.96751 1.25845 3.04486
lowerneck -5.67672 -1.16531 -1.14314
upperneck 7.41971 -1.55368 1.13201
head 3.41355 -0.757135 0.497482
rclavicle -2.82647e-015 -3.97569e-016
rhumerus -28.9685 5.37955 -86.5135
rradius 61.9459
rwrist -24.2912
rhand -24.3729 -29.8336
rfingers 7.12502
rthumb 2.11718 -59.8028
lclavicle -2.82647e-015 -3.97569e-016
lhumerus -73.0468 30.3113 33.6272
lradius 7.57857
lwrist -43.1509
lhand -16.3936 -11.4959
lfingers 7.12502
lthumb 9.82043 18.2551
rfemur -12.1124 -1.06696 12.3453
rtibia 57.1156
rfoot 23.5231 18.0537
rtoes -8.94983
lfemur -46.3792 0.593626 -28.7486
ltibia 37.4949
lfoot -6.33578 -1.64727
ltoes -18.1481
365
root 0.352055 15.7759 39.0032 16.7037 -4.50477 4.77217
lowerback -15.8397 0.643839 -7.70024
upperback -5.57946 2.08477 -1.9368
thorax 2.71132 1.07427 2.66997
lowerneck -5.72856 -1.10803 -1.072
upperneck 6.95891 -1.47237 1.04996
head 3.26123 -0.718221 0.461816
rclavicle -9.16894e-015 -2.18663e-015
rhumerus -29.1619 4.04045 -86.4071
rradius 61.2093
rwrist -20.4866
rhand -22.3876 -34.6044
rfingers 7.12502
rthumb 4.03453 -64.5459
lclavicle -9.16894e-015 -2.18663e-015
lhumerus -72.4926 31.4407 33.5287
lradius 7.67933
lwrist -43.785
lhand -16.4791 -11.6764
lfingers 7.12502
lthumb 9.73794 18.0785
rfemur -13.4934 -2.07075 11.9574
rtibia 59.7506
rfoot 23.7009 17.1943
rtoes -6.50585
lfemur -45.5681 0.178334 -29.1633
ltibia 37.8389
lfoot -7.6219 -1.41388
ltoes -19.8645
366
root 0.388674 15.7937 39.2176 16.6452 -4.16333 4.80915
lowerback -15.8943 0.510458 -7.24761
upperback -5.3924 1.86142 -2.01998
thorax 2.98403 0.946281 2.29549
lowerneck -5.95761 -1.09861 -1.15265
upperneck 6.875 -1.44875 1.03892
head 3.27688 -0.708473 0.472595
rclavicle -5.77718e-015 1.55052e-014
rhumerus -29.8584 3.70577 -86.8095
rradius 60.4409
rwrist -20.519
rhand -23.6278 -34.9469
rfingers 7.12502
rthumb 2.83682 -64.9078
lclavicle -5.77718e-015 1.55052e-014
lhumerus -72.1327 32.4213 33.3685
lradius 7.85262
lwrist -44.6454
lhand -16.6282 -12.223
lfingers 7.12502
lthumb 9.59407 17.5385
rfemur -15.0123 -2.7986 11.7261
rtibia 62.2209
rfoot 22.9375 16.3664
rtoes -5.60131
lfemur -44.6162 -0.0324508 -29.4414
ltibia 38.1234
lfoot -8.73941 -0.873881
ltoes -20.5195
367
root 0.384064 15.8215 39.4239 16.6039 -4.50204 4.79089
lowerback -15.6348 0.49227 -7.40671
upperback -5.51937 1.8275 -2.00451
thorax 2.70638 0.942603 2.38655
lowerneck -5.79892 -1.04 -1.21717
upperneck 6.85732 -1.36826 1.06798
head 3.2402 -0.669622 0.497695
rclavicle 1.04797e-014 -1.19271e-014
rhumerus -31.0957 3.39716 -87.3003
rradius 59.5338
rwrist -20.597
rhand -21.8534 -36.4298
rfingers 7.12502
rthumb 4.55034 -66.361
lclavicle 1.04797e-014 -1.19271e-014
lhumerus -72.125 33.0339 33.0036
lradius 8.43412
lwrist -45.2101
lhand -15.9858 -12.0502
lfingers 7.12502
lthumb 10.2139 17.6818
rfemur -16.9427 -2.51967 11.7481
rtibia 64.5557
rfoot 21.4695 15.0184
rtoes -6.65423
lfemur -43.8348 0.220945 -29.4755
ltibia 38.2789
lfoot -9.37867 -0.441534
ltoes -18.4759
368
root 0.389744 15.8482 39.6313 16.4937 -4.62141 5.00353
lowerback -15.3166 0.447865 -7.53674
upperback -5.60383 1.75643 -2.12418
thorax 2.45215 0.917921 2.31239
lowerneck -5.58618 -0.9859 -1.17458
upperneck 6.78714 -1.29903 1.03856
head 3.1735 -0.635912 0.484429
rclavicle -7.33018e-015 1.59028e-015
rhumerus -32.0112 2.49541 -87.5514
rradius 59.2716
rwrist -18.2356
rhand -12.2647 -53.0052
rfingers 7.12502
rthumb 13.8019 -82.5273
lclavicle -7.33018e-015 1.59028e-015
lhumerus -71.6959 33.8462 32.8301
lradius 8.60009
lwrist -45.9516
lhand -16.1414 -12.2667
lfingers 7.12502
lthumb 10.0637 17.4727
rfemur -18.6573 -2.68049 11.4924
rtibia 66.803
rfoot 19.187 13.4734
rtoes -9.00746
lfemur -42.8217 0.26809 -29.7699
ltibia 38.1719
lfoot -10.0892 -0.30862
ltoes -15.7306
369
root 0.397278 15.8701 39.8391 16.4144 -4.67008 4.97334
lowerback -15.2638 0.441191 -7.37788
upperback -5.57971 1.72207 -2.15833
thorax 2.4603 0.898266 2.18126
lowerneck -5.38944 -0.957356 -1.20957
upperneck 6.74101 -1.25803 1.01814
head 3.1196 -0.617811 0.486265
rclavicle 1.26104e-014 1.03368e-014
rhumerus -32.6411 2.07564 -87.9796
rradius 58.1053
rwrist -18.2661
rhand -8.89498 -59.9235
rfingers 7.12502
rthumb 17.0475 -89.1955
lclavicle 1.26104e-014 1.03368e-014
lhumerus -71.0535 34.8228 32.8385
lradius 8.66011
lwrist -46.8361
lhand -16.5448 -12.9906
lfingers 7.12502
lthumb 9.67457 16.7672
rfemur -20.3565 -2.8302 11.5696
rtibia 68.7349
rfoot 16.6711 11.87
rtoes -11.3278
lfemur -41.7727 0.515474 -29.8949
ltibia 38.0892
lfoot -11.0945 -0.14925
ltoes -16.1431
